# xmcd CD database file
#
# Track frame offsets:
#	207
#	36017
#	47207
#	92852
#	129277
#	136797
#	183977
#	191780
#	236312
#	263990
#
# Disc length: 3720 seconds
#
# Revision: 0
# Processed by: cddbd v1.5.2PL0 Copyright (c) Steve Scherf et al.
# Submitted via: CDex 1.70beta2
#
DISCID=840e860a
DTITLE=Jeanette Wrate - Somewhere Between Here And There
DYEAR=1996
DGENRE=Jazz
TTITLE0=Three Before Four
TTITLE1=The Dance That Broke I
TTITLE2=The Dance That Broke II
TTITLE3=Ed Blackwell - A Humble Homage
TTITLE4=The Gatekeeper's Persuasion I
TTITLE5=The Gatekeeper's Persuasion II
TTITLE6=She Sleeps With Her Hat On I
TTITLE7=She Sleeps With Her Hat On II
TTITLE8=Boo Boo's Birthday
TTITLE9=Shepherd's Lullaby
EXTD=YEAR: 1996
EXTT0=
EXTT1=
EXTT2=
EXTT3=
EXTT4=
EXTT5=
EXTT6=
EXTT7=
EXTT8=
EXTT9=
PLAYORDER=
